<svg width="30" height="30" viewBox="0 0 30 30" fill="none" xmlns="http://www.w3.org/2000/svg">
<circle cx="15" cy="15" r="15" fill="white"/>
<path fill-rule="evenodd" clip-rule="evenodd" d="M25 8.05978C20.9106 5.04751 14.8564 5.60052 10.7286 9.6144C6.60083 13.6283 5.80606 19.7352 8.60764 24C8.11504 23.6249 7.64572 23.205 7.20531 22.7398C2.80384 18.0918 2.95402 10.7083 7.54079 6.24805C12.1276 1.78787 19.414 1.94008 23.8154 6.58803C24.256 7.05312 24.6508 7.54559 25 8.05978Z" fill="#0758C1"/>
<path fill-rule="evenodd" clip-rule="evenodd" d="M20 26.6562C17.7343 26.4177 15.4552 25.3421 13.663 23.4682C9.95162 19.588 9.73416 13.7552 13.1773 10.4403C14.9355 8.74764 17.3082 8.03883 19.7036 8.26711C16.668 7.53065 13.3334 8.31506 10.9128 10.6455C7.13954 14.2782 7.01597 20.2919 10.6368 24.0777C13.132 26.6863 16.7542 27.5563 20 26.6562Z" fill="#2A7BE4"/>
<path fill-rule="evenodd" clip-rule="evenodd" d="M25 21.8576C22.0918 23.8929 17.7731 23.5023 14.7701 20.7475C13.3052 19.4037 12.3945 17.7184 12.0656 16C11.8383 17.6683 12.1979 19.4989 13.2078 21.148C15.3584 24.6594 19.6433 26.0179 22.7785 24.182C23.7488 23.6136 24.4954 22.8062 25 21.8576Z" fill="#3E53A4"/>
</svg>
